# File exported by Houdini 16.5.268 (www.sidefx.com)
# 66 points
# 384 vertices
# 128 primitives
# Bounds: [-2.02941203, -0.997697234, -0.993720233] to [2.00630498, 1.00958204, 1.00683355]
g 
v 2.00515723 -0.626143456 -0.75743866
v 2.00359797 -0.463935196 -0.867518783
v 2.00145364 -0.283371091 -0.943838239
v 1.99880481 -0.0913883597 -0.983465195
v 1.99575567 0.104635298 -0.984875321
v 1.99242401 0.297165751 -0.948015928
v 1.98893476 0.478805006 -0.874303699
v 1.98542404 0.642572165 -0.766569078
v 1.98202705 0.782174289 -0.628954649
v 1.9788723 0.892246246 -0.466747433
v 1.97608352 0.968558133 -0.286181957
v 1.97376752 1.00817764 -0.0941960216
v 1.97201133 1.00958204 0.1018309
v 1.97088289 0.972716451 0.294367224
v 1.97042775 0.89899838 0.476012111
v 1.97066212 0.791261196 0.639787674
v 1.97157526 0.653643668 0.779396832
v 1.97313404 0.491436392 0.889477015
v 1.97527885 0.310871333 0.965796351
v 1.97792745 0.118888609 1.00542331
v 1.98097658 -0.0771340579 1.00683355
v 1.984308 -0.269665539 0.969974101
v 1.98779726 -0.451304704 0.89626056
v 1.99130821 -0.615071774 0.788525939
v 1.99470639 -0.754674017 0.650911987
v 1.99785972 -0.864745915 0.488704145
v 2.00064874 -0.941057801 0.308138788
v 2.00296593 -0.980676293 0.116153449
v 2.0047214 -0.982079625 -0.0798747838
v 2.00584888 -0.945214152 -0.272410214
v 2.00630498 -0.871495843 -0.454056025
v 2.00607157 -0.763758838 -0.617830038
v -1.99468124 -0.641758263 -0.766285121
v -1.99624169 -0.479550093 -0.87636441
v -1.99838603 -0.298985034 -0.952683806
v -2.00103498 -0.107002303 -0.992310643
v -2.00408244 0.0890213624 -0.993720233
v -2.00741577 0.281551838 -0.956861556
v -2.01090431 0.463190019 -0.883148015
v -2.01441383 0.626957178 -0.775414228
v -2.01781082 0.766558409 -0.63779974
v -2.02096558 0.876630306 -0.475592613
v -2.02375436 0.952942193 -0.295027167
v -2.02607226 0.992561877 -0.103043169
v -2.02782679 0.993965268 0.0929842293
v -2.02895403 0.957100749 0.285519838
v -2.02941203 0.883383572 0.467165053
v -2.02917671 0.775646508 0.630939722
v -2.02826357 0.638029993 0.770548999
v -2.02670479 0.4758237 0.880629301
v -2.02455878 0.295259595 0.956949472
v -2.02191114 0.103276804 0.996577024
v -2.0188632 -0.0927459896 0.997988105
v -2.01553011 -0.285276473 0.961129367
v -2.01204228 -0.466914833 0.887418091
v -2.00853086 -0.630683064 0.779684782
v -2.00513387 -0.770285368 0.642071605
v -2.00197983 -0.880358458 0.479865134
v -1.99918938 -0.956671298 0.299300224
v -1.9968729 -0.996291995 0.107315511
v -1.99511671 -0.997697234 -0.0887114406
v -1.99398923 -0.960832834 -0.28124696
v -1.99353409 -0.887116671 -0.462892175
v -1.99376774 -0.779381514 -0.626667798
v 1.98836541 0.0137506202 0.0109788179
v -2.01147246 -0.00186529756 0.00213366747
vn 0.999838889 0.0156139191 0.00884557143
vn 0.999838889 0.0156139191 0.00884557143
vn 0.999838889 0.0156139191 0.00884557143
vn -0.999838889 -0.0156139191 -0.00884557143
vn -0.999838889 -0.0156139191 -0.00884557143
vn -0.999838889 -0.0156139191 -0.00884557143
vn 0.999839425 0.0156141417 0.0088439621
vn 0.999839425 0.0156141417 0.0088439621
vn 0.999839425 0.0156141417 0.0088439621
vn -0.999839425 -0.0156141417 -0.0088439621
vn -0.999839425 -0.0156141417 -0.0088439621
vn -0.999839425 -0.0156141417 -0.0088439621
vn 0.999838889 0.0156139191 0.00884557143
vn 0.999838889 0.0156139191 0.00884557143
vn 0.999838889 0.0156139191 0.00884557143
vn -0.999838889 -0.0156139191 -0.00884557143
vn -0.999838889 -0.0156139191 -0.00884557143
vn -0.999838889 -0.0156139191 -0.00884557143
vn 0.999838769 0.0156159075 0.00884574931
vn 0.999838769 0.0156159075 0.00884574931
vn 0.999838769 0.0156159075 0.00884574931
vn -0.999838889 -0.0156139191 -0.00884557143
vn -0.999838889 -0.0156139191 -0.00884557143
vn -0.999838889 -0.0156139191 -0.00884557143
vn 0.999838889 0.0156139191 0.00884557143
vn 0.999838889 0.0156139191 0.00884557143
vn 0.999838889 0.0156139191 0.00884557143
vn -0.999838889 -0.0156139191 -0.00884557143
vn -0.999838889 -0.0156139191 -0.00884557143
vn -0.999838889 -0.0156139191 -0.00884557143
vn 0.999839425 0.0156141417 0.0088439621
vn 0.999839425 0.0156141417 0.0088439621
vn 0.999839425 0.0156141417 0.0088439621
vn -0.999838889 -0.0156139191 -0.00884557143
vn -0.999838889 -0.0156139191 -0.00884557143
vn -0.999838889 -0.0156139191 -0.00884557143
vn 0.999838889 0.0156139191 0.00884557143
vn 0.999838889 0.0156139191 0.00884557143
vn 0.999838889 0.0156139191 0.00884557143
vn -0.999838769 -0.0156159075 -0.00884574931
vn -0.999838769 -0.0156159075 -0.00884574931
vn -0.999838769 -0.0156159075 -0.00884574931
vn 0.999838889 0.0156139191 0.00884557143
vn 0.999838889 0.0156139191 0.00884557143
vn 0.999838889 0.0156139191 0.00884557143
vn -0.999839425 -0.0156141417 -0.0088439621
vn -0.999839425 -0.0156141417 -0.0088439621
vn -0.999839425 -0.0156141417 -0.0088439621
vn 0.999838889 0.0156139191 0.00884557143
vn 0.999838889 0.0156139191 0.00884557143
vn 0.999838889 0.0156139191 0.00884557143
vn -0.999838889 -0.0156139191 -0.00884557143
vn -0.999838889 -0.0156139191 -0.00884557143
vn -0.999838889 -0.0156139191 -0.00884557143
vn 0.999839425 0.0156141417 0.0088439621
vn 0.999839425 0.0156141417 0.0088439621
vn 0.999839425 0.0156141417 0.0088439621
vn -0.999838889 -0.0156139191 -0.00884557143
vn -0.999838889 -0.0156139191 -0.00884557143
vn -0.999838889 -0.0156139191 -0.00884557143
vn 0.999838889 0.0156139191 0.00884557143
vn 0.999838889 0.0156139191 0.00884557143
vn 0.999838889 0.0156139191 0.00884557143
vn -0.999838889 -0.0156139191 -0.00884557143
vn -0.999838889 -0.0156139191 -0.00884557143
vn -0.999838889 -0.0156139191 -0.00884557143
vn 0.999838889 0.0156139191 0.00884557143
vn 0.999838889 0.0156139191 0.00884557143
vn 0.999838889 0.0156139191 0.00884557143
vn -0.999838889 -0.0156139191 -0.00884557143
vn -0.999838889 -0.0156139191 -0.00884557143
vn -0.999838889 -0.0156139191 -0.00884557143
vn 0.999839425 0.0156141417 0.0088439621
vn 0.999839425 0.0156141417 0.0088439621
vn 0.999839425 0.0156141417 0.0088439621
vn -0.999839425 -0.0156141417 -0.0088439621
vn -0.999839425 -0.0156141417 -0.0088439621
vn -0.999839425 -0.0156141417 -0.0088439621
vn 0.999839425 0.0156141417 0.0088439621
vn 0.999839425 0.0156141417 0.0088439621
vn 0.999839425 0.0156141417 0.0088439621
vn -0.999839425 -0.0156141417 -0.0088439621
vn -0.999839425 -0.0156141417 -0.0088439621
vn -0.999839425 -0.0156141417 -0.0088439621
vn 0.999838889 0.0156139191 0.00884557143
vn 0.999838889 0.0156139191 0.00884557143
vn 0.999838889 0.0156139191 0.00884557143
vn -0.999838889 -0.0156139191 -0.00884557143
vn -0.999838889 -0.0156139191 -0.00884557143
vn -0.999838889 -0.0156139191 -0.00884557143
vn 0.999838889 0.0156139191 0.00884557143
vn 0.999838889 0.0156139191 0.00884557143
vn 0.999838889 0.0156139191 0.00884557143
vn -0.999839425 -0.0156141417 -0.0088439621
vn -0.999839425 -0.0156141417 -0.0088439621
vn -0.999839425 -0.0156141417 -0.0088439621
vn 0.999839425 0.0156141417 0.0088439621
vn 0.999839425 0.0156141417 0.0088439621
vn 0.999839425 0.0156141417 0.0088439621
vn -0.999838889 -0.0156139191 -0.00884557143
vn -0.999838889 -0.0156139191 -0.00884557143
vn -0.999838889 -0.0156139191 -0.00884557143
vn 0.999838889 0.0156139191 0.00884557143
vn 0.999838889 0.0156139191 0.00884557143
vn 0.999838889 0.0156139191 0.00884557143
vn -0.999838889 -0.0156139191 -0.00884557143
vn -0.999838889 -0.0156139191 -0.00884557143
vn -0.999838889 -0.0156139191 -0.00884557143
vn 0.999838889 0.0156139191 0.00884557143
vn 0.999838889 0.0156139191 0.00884557143
vn 0.999838889 0.0156139191 0.00884557143
vn -0.999838889 -0.0156139191 -0.00884557143
vn -0.999838889 -0.0156139191 -0.00884557143
vn -0.999838889 -0.0156139191 -0.00884557143
vn 0.999838889 0.0156139191 0.00884557143
vn 0.999838889 0.0156139191 0.00884557143
vn 0.999838889 0.0156139191 0.00884557143
vn -0.999838889 -0.0156139191 -0.00884557143
vn -0.999838889 -0.0156139191 -0.00884557143
vn -0.999838889 -0.0156139191 -0.00884557143
vn 0.999838889 0.0156139191 0.00884557143
vn 0.999838889 0.0156139191 0.00884557143
vn 0.999838889 0.0156139191 0.00884557143
vn -0.999838889 -0.0156139191 -0.00884557143
vn -0.999838889 -0.0156139191 -0.00884557143
vn -0.999838889 -0.0156139191 -0.00884557143
vn 0.999838769 0.0156159075 0.00884574931
vn 0.999838769 0.0156159075 0.00884574931
vn 0.999838769 0.0156159075 0.00884574931
vn -0.999838889 -0.0156139191 -0.00884557143
vn -0.999838889 -0.0156139191 -0.00884557143
vn -0.999838889 -0.0156139191 -0.00884557143
vn 0.999839425 0.0156141417 0.0088439621
vn 0.999839425 0.0156141417 0.0088439621
vn 0.999839425 0.0156141417 0.0088439621
vn -0.999838769 -0.0156159075 -0.00884574931
vn -0.999838769 -0.0156159075 -0.00884574931
vn -0.999838769 -0.0156159075 -0.00884574931
vn 0.999838889 0.0156139191 0.00884557143
vn 0.999838889 0.0156139191 0.00884557143
vn 0.999838889 0.0156139191 0.00884557143
vn -0.999839425 -0.0156141417 -0.0088439621
vn -0.999839425 -0.0156141417 -0.0088439621
vn -0.999839425 -0.0156141417 -0.0088439621
vn 0.999838889 0.0156139191 0.00884557143
vn 0.999838889 0.0156139191 0.00884557143
vn 0.999838889 0.0156139191 0.00884557143
vn -0.999838889 -0.0156139191 -0.00884557143
vn -0.999838889 -0.0156139191 -0.00884557143
vn -0.999838889 -0.0156139191 -0.00884557143
vn 0.999839425 0.0156141417 0.0088439621
vn 0.999839425 0.0156141417 0.0088439621
vn 0.999839425 0.0156141417 0.0088439621
vn -0.999839425 -0.0156141417 -0.0088439621
vn -0.999839425 -0.0156141417 -0.0088439621
vn -0.999839425 -0.0156141417 -0.0088439621
vn 0.999839425 0.0156141417 0.0088439621
vn 0.999839425 0.0156141417 0.0088439621
vn 0.999839425 0.0156141417 0.0088439621
vn -0.999838889 -0.0156139191 -0.00884557143
vn -0.999838889 -0.0156139191 -0.00884557143
vn -0.999838889 -0.0156139191 -0.00884557143
vn 0.999838889 0.0156139191 0.00884557143
vn 0.999838889 0.0156139191 0.00884557143
vn 0.999838889 0.0156139191 0.00884557143
vn -0.999838889 -0.0156139191 -0.00884557143
vn -0.999838889 -0.0156139191 -0.00884557143
vn -0.999838889 -0.0156139191 -0.00884557143
vn 0.999838889 0.0156139191 0.00884557143
vn 0.999838889 0.0156139191 0.00884557143
vn 0.999838889 0.0156139191 0.00884557143
vn -0.999839425 -0.0156141417 -0.0088439621
vn -0.999839425 -0.0156141417 -0.0088439621
vn -0.999839425 -0.0156141417 -0.0088439621
vn 0.999838889 0.0156139191 0.00884557143
vn 0.999838889 0.0156139191 0.00884557143
vn 0.999838889 0.0156139191 0.00884557143
vn -0.999838889 -0.0156139191 -0.00884557143
vn -0.999838889 -0.0156139191 -0.00884557143
vn -0.999838889 -0.0156139191 -0.00884557143
vn 0.999839425 0.0156141417 0.0088439621
vn 0.999839425 0.0156141417 0.0088439621
vn 0.999839425 0.0156141417 0.0088439621
vn -0.999838889 -0.0156139191 -0.00884557143
vn -0.999838889 -0.0156139191 -0.00884557143
vn -0.999838889 -0.0156139191 -0.00884557143
vn 0.999838889 0.0156139191 0.00884557143
vn 0.999838889 0.0156139191 0.00884557143
vn 0.999838889 0.0156139191 0.00884557143
vn -0.999838889 -0.0156139191 -0.00884557143
vn -0.999838889 -0.0156139191 -0.00884557143
vn -0.999838889 -0.0156139191 -0.00884557143
vn 0.00433284324 -0.712150395 -0.702013612
vn 0.00433284324 -0.712150395 -0.702013612
vn 0.00433284324 -0.712150395 -0.702013612
vn 0.00433282787 -0.712153614 -0.702010274
vn 0.00433282787 -0.712153614 -0.702010274
vn 0.00433282787 -0.712153614 -0.702010274
vn 0.00447658496 -0.835431218 -0.549576342
vn 0.00447658496 -0.835431218 -0.549576342
vn 0.00447658496 -0.835431218 -0.549576342
vn 0.00447725551 -0.835425317 -0.549584687
vn 0.00447725551 -0.835425317 -0.549584687
vn 0.00447725551 -0.835425317 -0.549584687
vn 0.00444880687 -0.926598608 -0.376025081
vn 0.00444880687 -0.926598608 -0.376025081
vn 0.00444880687 -0.926598608 -0.376025081
vn 0.00444957428 -0.926595747 -0.376033634
vn 0.00444957428 -0.926595747 -0.376033634
vn 0.00444957428 -0.926595747 -0.376033634
vn 0.00424997276 -0.982155204 -0.188023373
vn 0.00424997276 -0.982155204 -0.188023373
vn 0.00424997276 -0.982155204 -0.188023373
vn 0.00425076718 -0.982153356 -0.188032031
vn 0.00425076718 -0.982153356 -0.188032031
vn 0.00425076718 -0.982153356 -0.188032031
vn 0.00388788292 -0.999966502 0.00720365997
vn 0.00388788292 -0.999966502 0.00720365997
vn 0.00388788292 -0.999966502 0.00720365997
vn 0.00388844544 -0.999966741 0.0071956208
vn 0.00388844544 -0.999966741 0.0071956208
vn 0.00388844544 -0.999966741 0.0071956208
vn 0.00337635516 -0.9793486 0.202151299
vn 0.00337635516 -0.9793486 0.202151299
vn 0.00337635516 -0.9793486 0.202151299
vn 0.0033766462 -0.97935003 0.202143997
vn 0.0033766462 -0.97935003 0.202143997
vn 0.0033766462 -0.97935003 0.202143997
vn 0.00273476634 -0.921094656 0.389328986
vn 0.00273476634 -0.921094656 0.389328986
vn 0.00273476634 -0.921094656 0.389328986
vn 0.00273511629 -0.921097815 0.389321387
vn 0.00273511629 -0.921097815 0.389321387
vn 0.00273511629 -0.921097815 0.389321387
vn 0.00198860141 -0.827445686 0.561542928
vn 0.00198860141 -0.827445686 0.561542928
vn 0.00198860141 -0.827445686 0.561542928
vn 0.00198907848 -0.827449143 0.561536908
vn 0.00198907848 -0.827449143 0.561536908
vn 0.00198907848 -0.827449143 0.561536908
vn 0.00116548175 -0.702000737 0.712175012
vn 0.00116548175 -0.702000737 0.712175012
vn 0.00116548175 -0.702000737 0.712175012
vn 0.00116577977 -0.702005446 0.712170839
vn 0.00116577977 -0.702005446 0.712170839
vn 0.00116577977 -0.702005446 0.712170839
vn 0.000298023253 -0.549580872 0.835440934
vn 0.000298023253 -0.549580872 0.835440934
vn 0.000298023253 -0.549580872 0.835440934
vn 0.000298306375 -0.549585462 0.83543694
vn 0.000298306375 -0.549585462 0.83543694
vn 0.000298306375 -0.549585462 0.83543694
vn -0.000581145578 -0.376040846 0.926603317
vn -0.000581145578 -0.376040846 0.926603317
vn -0.000581145578 -0.376040846 0.926603317
vn -0.000580728462 -0.376045704 0.926600873
vn -0.000580728462 -0.376045704 0.926600873
vn -0.000580728462 -0.376045704 0.926600873
vn -0.00143824948 -0.188051105 0.982158065
vn -0.00143824948 -0.188051105 0.982158065
vn -0.00143824948 -0.188051105 0.982158065
vn -0.00143774285 -0.188056946 0.982156754
vn -0.00143774285 -0.188056946 0.982156754
vn -0.00143774285 -0.188056946 0.982156754
vn -0.00223951228 0.0071655605 0.99997139
vn -0.00223951228 0.0071655605 0.99997139
vn -0.00223951228 0.0071655605 0.99997139
vn -0.00223925873 0.00716146128 0.999972343
vn -0.00223925873 0.00716146128 0.999972343
vn -0.00223925873 0.00716146128 0.999972343
vn -0.00295502809 0.202109367 0.979358196
vn -0.00295502809 0.202109367 0.979358196
vn -0.00295502809 0.202109367 0.979358196
vn -0.002954775 0.202105314 0.97935921
vn -0.002954775 0.202105314 0.97935921
vn -0.002954775 0.202105314 0.97935921
vn -0.00355690019 0.3892892 0.921108484
vn -0.00355690019 0.3892892 0.921108484
vn -0.00355690019 0.3892892 0.921108484
vn -0.00355700427 0.389285952 0.921110451
vn -0.00355700427 0.389285952 0.921110451
vn -0.00355700427 0.389285952 0.921110451
vn -0.00402209954 0.561510146 0.827460408
vn -0.00402209954 0.561510146 0.827460408
vn -0.00402209954 0.561510146 0.827460408
vn -0.00402220385 0.561506867 0.827462316
vn -0.00402220385 0.561506867 0.827462316
vn -0.00402220385 0.561506867 0.827462316
vn -0.00433311192 0.71215266 0.702011108
vn -0.00433311192 0.71215266 0.702011108
vn -0.00433311192 0.71215266 0.702011108
vn -0.00433284324 0.712150395 0.702013612
vn -0.00433284324 0.712150395 0.702013612
vn -0.00433284324 0.712150395 0.702013612
vn -0.00447720336 0.835427701 0.549581289
vn -0.00447720336 0.835427701 0.549581289
vn -0.00447720336 0.835427701 0.549581289
vn -0.0044770767 0.835426569 0.549582541
vn -0.0044770767 0.835426569 0.549582541
vn -0.0044770767 0.835426569 0.549582541
vn -0.00444905972 0.926595986 0.376030594
vn -0.00444905972 0.926595986 0.376030594
vn -0.00444905972 0.926595986 0.376030594
vn -0.00444926834 0.926595747 0.37603277
vn -0.00444926834 0.926595747 0.37603277
vn -0.00444926834 0.926595747 0.37603277
vn -0.00425029593 0.982154608 0.188029125
vn -0.00425029593 0.982154608 0.188029125
vn -0.00425029593 0.982154608 0.188029125
vn -0.00425016135 0.982153475 0.188030422
vn -0.00425016135 0.982153475 0.188030422
vn -0.00425016135 0.982153475 0.188030422
vn -0.00388814369 0.99996686 -0.00719641056
vn -0.00388814369 0.99996686 -0.00719641056
vn -0.00388814369 0.99996686 -0.00719641056
vn -0.00388814369 0.99996686 -0.00719641056
vn -0.00388814369 0.99996686 -0.00719641056
vn -0.00388814369 0.99996686 -0.00719641056
vn -0.00337675051 0.97935015 -0.202145383
vn -0.00337675051 0.97935015 -0.202145383
vn -0.00337675051 0.97935015 -0.202145383
vn -0.00337634818 0.97935015 -0.202144772
vn -0.00337634818 0.97935015 -0.202144772
vn -0.00337634818 0.97935015 -0.202144772
vn -0.00273519824 0.921096921 -0.389322877
vn -0.00273519824 0.921096921 -0.389322877
vn -0.00273519824 0.921096921 -0.389322877
vn -0.00273522828 0.921097994 -0.389322817
vn -0.00273522828 0.921097994 -0.389322817
vn -0.00273522828 0.921097994 -0.389322817
vn -0.00198876555 0.827449262 -0.561537743
vn -0.00198876555 0.827449262 -0.561537743
vn -0.00198876555 0.827449262 -0.561537743
vn -0.00198872085 0.827448249 -0.561537802
vn -0.00198872085 0.827448249 -0.561537802
vn -0.00198872085 0.827448249 -0.561537802
vn -0.00116574997 0.702004433 -0.712170959
vn -0.00116574997 0.702004433 -0.712170959
vn -0.00116574997 0.702004433 -0.712170959
vn -0.00116577977 0.702005446 -0.712170839
vn -0.00116577977 0.702005446 -0.712170839
vn -0.00116577977 0.702005446 -0.712170839
vn -0.000297978491 0.549584508 -0.835437655
vn -0.000297978491 0.549584508 -0.835437655
vn -0.000297978491 0.549584508 -0.835437655
vn -0.000297978491 0.549584508 -0.835437655
vn -0.000297978491 0.549584508 -0.835437655
vn -0.000297978491 0.549584508 -0.835437655
vn 0.000581056171 0.37604472 -0.926601529
vn 0.000581056171 0.37604472 -0.926601529
vn 0.000581056171 0.37604472 -0.926601529
vn 0.000581056171 0.376047581 -0.92659986
vn 0.000581056171 0.376047581 -0.92659986
vn 0.000581056171 0.376047581 -0.92659986
vn 0.00143778767 0.188055977 -0.982156873
vn 0.00143778767 0.188055977 -0.982156873
vn 0.00143778767 0.188055977 -0.982156873
vn 0.00143771304 0.188057959 -0.982156634
vn 0.00143771304 0.188057959 -0.982156634
vn 0.00143771304 0.188057959 -0.982156634
vn 0.00223925873 -0.00716146128 -0.999972343
vn 0.00223925873 -0.00716146128 -0.999972343
vn 0.00223925873 -0.00716146128 -0.999972343
vn 0.00223919936 -0.00715947291 -0.999972224
vn 0.00223919936 -0.00715947291 -0.999972224
vn 0.00223919936 -0.00715947291 -0.999972224
vn 0.00295481971 -0.202106297 -0.979359329
vn 0.00295481971 -0.202106297 -0.979359329
vn 0.00295481971 -0.202106297 -0.979359329
vn 0.00295474497 -0.202104285 -0.97935909
vn 0.00295474497 -0.202104285 -0.97935909
vn 0.00295474497 -0.202104285 -0.97935909
vn 0.00355697447 -0.389284968 -0.921110272
vn 0.00355697447 -0.389284968 -0.921110272
vn 0.00355697447 -0.389284968 -0.921110272
vn 0.00355654256 -0.389283985 -0.921110809
vn 0.00355654256 -0.389283985 -0.921110809
vn 0.00355654256 -0.389283985 -0.921110809
vn 0.00402233796 -0.561508 -0.827461064
vn 0.00402233796 -0.561508 -0.827461064
vn 0.00402233796 -0.561508 -0.827461064
vn 0.00402177265 -0.561505973 -0.827463031
vn 0.00402177265 -0.561505973 -0.827463031
vn 0.00402177265 -0.561505973 -0.827463031
g 
f 65//1 1//2 2//3
f 66//4 34//5 33//6
f 65//7 2//8 3//9
f 66//10 35//11 34//12
f 65//13 3//14 4//15
f 66//16 36//17 35//18
f 65//19 4//20 5//21
f 66//22 37//23 36//24
f 65//25 5//26 6//27
f 66//28 38//29 37//30
f 65//31 6//32 7//33
f 66//34 39//35 38//36
f 65//37 7//38 8//39
f 66//40 40//41 39//42
f 65//43 8//44 9//45
f 66//46 41//47 40//48
f 65//49 9//50 10//51
f 66//52 42//53 41//54
f 65//55 10//56 11//57
f 66//58 43//59 42//60
f 65//61 11//62 12//63
f 66//64 44//65 43//66
f 65//67 12//68 13//69
f 66//70 45//71 44//72
f 65//73 13//74 14//75
f 66//76 46//77 45//78
f 65//79 14//80 15//81
f 66//82 47//83 46//84
f 65//85 15//86 16//87
f 66//88 48//89 47//90
f 65//91 16//92 17//93
f 66//94 49//95 48//96
f 65//97 17//98 18//99
f 66//100 50//101 49//102
f 65//103 18//104 19//105
f 66//106 51//107 50//108
f 65//109 19//110 20//111
f 66//112 52//113 51//114
f 65//115 20//116 21//117
f 66//118 53//119 52//120
f 65//121 21//122 22//123
f 66//124 54//125 53//126
f 65//127 22//128 23//129
f 66//130 55//131 54//132
f 65//133 23//134 24//135
f 66//136 56//137 55//138
f 65//139 24//140 25//141
f 66//142 57//143 56//144
f 65//145 25//146 26//147
f 66//148 58//149 57//150
f 65//151 26//152 27//153
f 66//154 59//155 58//156
f 65//157 27//158 28//159
f 66//160 60//161 59//162
f 65//163 28//164 29//165
f 66//166 61//167 60//168
f 65//169 29//170 30//171
f 66//172 62//173 61//174
f 65//175 30//176 31//177
f 66//178 63//179 62//180
f 65//181 31//182 32//183
f 66//184 64//185 63//186
f 32//187 1//188 65//189
f 66//190 33//191 64//192
f 33//193 1//194 32//195
f 33//196 32//197 64//198
f 31//199 63//200 64//201
f 31//202 64//203 32//204
f 30//205 62//206 63//207
f 30//208 63//209 31//210
f 29//211 61//212 62//213
f 29//214 62//215 30//216
f 28//217 60//218 61//219
f 28//220 61//221 29//222
f 27//223 59//224 60//225
f 27//226 60//227 28//228
f 26//229 58//230 59//231
f 26//232 59//233 27//234
f 25//235 57//236 58//237
f 25//238 58//239 26//240
f 24//241 56//242 57//243
f 24//244 57//245 25//246
f 23//247 55//248 56//249
f 23//250 56//251 24//252
f 22//253 54//254 55//255
f 22//256 55//257 23//258
f 21//259 53//260 54//261
f 21//262 54//263 22//264
f 20//265 52//266 53//267
f 20//268 53//269 21//270
f 19//271 51//272 52//273
f 19//274 52//275 20//276
f 18//277 50//278 51//279
f 18//280 51//281 19//282
f 17//283 49//284 50//285
f 17//286 50//287 18//288
f 16//289 48//290 49//291
f 16//292 49//293 17//294
f 15//295 47//296 48//297
f 15//298 48//299 16//300
f 14//301 46//302 47//303
f 14//304 47//305 15//306
f 13//307 45//308 46//309
f 13//310 46//311 14//312
f 12//313 44//314 45//315
f 12//316 45//317 13//318
f 11//319 43//320 44//321
f 11//322 44//323 12//324
f 10//325 42//326 43//327
f 10//328 43//329 11//330
f 9//331 41//332 42//333
f 9//334 42//335 10//336
f 8//337 40//338 9//339
f 40//340 41//341 9//342
f 7//343 39//344 8//345
f 39//346 40//347 8//348
f 6//349 38//350 7//351
f 38//352 39//353 7//354
f 5//355 37//356 6//357
f 37//358 38//359 6//360
f 4//361 36//362 5//363
f 36//364 37//365 5//366
f 3//367 35//368 4//369
f 35//370 36//371 4//372
f 2//373 34//374 3//375
f 34//376 35//377 3//378
f 1//379 33//380 2//381
f 33//382 34//383 2//384
